<svg xmlns="http://www.w3.org/2000/svg" viewBox="0 0 362.762 396.85"><path d="M.14 369.123v1.47l3.633.367c.02.717.052 1.397.061 2.16l.044 4.301q.022 2.181.024 4.302v1.793q0 2.124-.024 4.343l-.044 4.342c-.009.764-.04 1.442-.061 2.157l-3.633.371v1.47h12.78v-1.47l-3.55-.357c-.026-.733-.058-1.436-.075-2.21q-.045-2.12-.045-4.342v-10.4q0-2.181.044-4.3c.019-.822.053-1.558.08-2.325H20.86c.028.767.062 1.503.08 2.324q.046 2.12.045 4.301v10.438q0 2.225-.046 4.342c-.016.768-.048 1.45-.073 2.168l-3.55.36v1.47h12.732v-1.47l-3.575-.365-.05-2.201q-.046-2.12-.045-4.343V377.42q0-2.181.046-4.3l.048-2.164 3.576-.365v-1.47zm53.673 25.125a10.442 10.442 0 01-1.088.422 12.655 12.655 0 01-3.466.508 8.81 8.81 0 01-4.826-1.366 9.16 9.16 0 01-3.399-4.14 17.035 17.035 0 01-1.246-6.97 16.136 16.136 0 011.338-7.015 9.74 9.74 0 013.534-4.157 8.77 8.77 0 014.78-1.387 10.406 10.406 0 013.15.508 9.438 9.438 0 01.868.377l1.737 5.558h2.22l-.317-6.239a14.544 14.544 0 00-4.123-1.47 21.963 21.963 0 00-4.124-.406 17.322 17.322 0 00-5.732.938 13.97 13.97 0 00-4.757 2.773 12.927 12.927 0 00-3.24 4.505 14.956 14.956 0 00-1.178 6.097 14.803 14.803 0 001.133 5.954 12.763 12.763 0 003.125 4.422 13.438 13.438 0 004.69 2.752 17.735 17.735 0 005.868.939 21.995 21.995 0 004.6-.47 16.427 16.427 0 004.1-1.445l.273-6.28H55.51zm26.577-25.125v1.47l3.792.387-.015 2.305-6.588 8.03-6.342 7.72.044-6.578q0-3.385.022-6.729c.01-1.607.03-3.186.049-4.766l3.644-.37v-1.47H62.264v1.47l3.631.371c.022.716.053 1.395.061 2.157q.022 2.12.024 4.301v10.438q0 2.225-.046 4.342c-.017.766-.049 1.444-.073 2.161l-3.597.367v1.47h12.732v-1.47l-3.794-.384.016-2.424 6.543-7.995 6.386-7.765-.042 6.296q0 3.629-.024 7.033c-.01 1.648-.03 3.256-.05 4.867l-3.642.372v1.47h12.733v-1.47l-3.596-.367c-.026-.73-.058-1.43-.074-2.2q-.047-2.12-.046-4.342v-10.399q0-2.181.046-4.3c.016-.765.048-1.445.073-2.162l3.596-.367v-1.47zm32.154 12.032l7.129-10.214 3.534-.349v-1.469h-9.379v1.469l3.501.346-5.783 8.664-5.561-8.653 3.493-.357v-1.469H96.746v1.469l3.259.359 7.942 12.358-7.902 11.063-3.662.357v1.469h9.425v-1.469l-3.423-.337 6.558-9.533 6.104 9.497-3.71.373v1.469h13.003v-1.469l-3.296-.348-8.5-13.226zm36.584-9.097a12.691 12.691 0 00-4.328-2.69 14.427 14.427 0 00-5.052-.897 14.172 14.172 0 00-5.052.918 12.743 12.743 0 00-4.327 2.732 13.284 13.284 0 00-3.036 4.466 15.305 15.305 0 00-1.133 6.074 15.977 15.977 0 001.11 6.178 12.43 12.43 0 003.035 4.445 13.065 13.065 0 004.351 2.67 14.583 14.583 0 0010.127-.02 12.644 12.644 0 007.363-7.157 17.354 17.354 0 00-.024-12.272 13.075 13.075 0 00-3.034-4.447zm-2.176 15.476a14.633 14.633 0 01-1.358 3.974 7.291 7.291 0 01-2.357 2.693 6.68 6.68 0 01-6.955 0 7.369 7.369 0 01-2.401-2.693 13.598 13.598 0 01-1.36-3.994 27.67 27.67 0 010-9.727 13.609 13.609 0 011.36-3.973 7.391 7.391 0 012.401-2.694 6.68 6.68 0 016.955 0 7.266 7.266 0 012.357 2.714 14.923 14.923 0 011.358 3.995 26.231 26.231 0 010 9.705zm10.24-18.411l-.363 7.543h2.222l1.619-5.83h5.996c.023.755.055 1.477.064 2.284q.022 2.12.023 4.301v10.438q0 2.225-.047 4.342c-.016.757-.048 1.43-.073 2.138l-4.096.39v1.47h13.777v-1.47l-4.095-.39c-.025-.722-.057-1.414-.073-2.176q-.049-2.12-.047-4.343v-10.399q0-2.181.047-4.3c.016-.808.05-1.53.077-2.284h5.997l1.581 5.83h2.266l-.407-7.544zm47.678 25.362h-9.81c-.027-.775-.061-1.52-.078-2.343q-.045-2.142-.045-4.384v-4.566h5.698l.872 3.71h1.723v-9.135h-1.723l-.898 3.71h-5.672v-4.056q0-2.181.045-4.3c.016-.808.05-1.53.077-2.284h8.955l1.661 5.463h2.222l-.41-7.177h-21.659v1.47l3.633.367c.021.717.053 1.397.06 2.16q.023 2.12.024 4.301v10.438q0 2.225-.023 4.342c-.008.765-.04 1.444-.061 2.16l-3.633.368v1.47h22.476l.408-7.34h-2.222zm30.191-21.63a7.94 7.94 0 00-3.829-2.753 18.933 18.933 0 00-6.617-.98h-11.6v1.47l3.633.368c.022.717.053 1.397.061 2.16q.022 2.12.024 4.301v10.438q0 2.225-.024 4.342c-.008.765-.04 1.444-.06 2.16l-3.633.368v1.47h13.278v-1.47l-4.052-.395c-.024-.709-.057-1.393-.072-2.133q-.045-2.08-.045-4.177v-2.753h1.812a19.202 19.202 0 007.295-1.142 8.117 8.117 0 003.897-3.017 7.595 7.595 0 001.177-4.119 7.026 7.026 0 00-1.245-4.138zm-4.758 7.564a5.132 5.132 0 01-2.174 2.345 7.712 7.712 0 01-3.83.835h-2.174v-6.178q0-2.181.045-4.3c.017-.822.05-1.558.078-2.325h1.872a7.302 7.302 0 015.186 1.61 6.017 6.017 0 011.7 4.588 8.013 8.013 0 01-.703 3.425zm20.96-11.459h-3.127l-9.353 25.326-3.427.443v1.47h9.334v-1.47l-3.92-.47 2.45-6.787h9.454l2.423 6.88-3.834.42v1.427h12.506v-1.428l-3.02-.348zm-7.425 16.801l4.167-11.544 4.066 11.544zm22.966-16.638v1.47l3.631.367c.022.717.054 1.397.062 2.16l.045 4.301q.023 2.181.023 4.302v1.793q0 2.124-.023 4.343l-.045 4.342c-.008.764-.04 1.442-.062 2.157l-3.631.371v1.47h12.776v-1.47l-3.548-.357c-.026-.733-.058-1.436-.075-2.21q-.048-2.12-.047-4.342v-10.4q0-2.181.047-4.3c.018-.822.051-1.558.08-2.325h11.485c.028.767.062 1.503.08 2.324q.043 2.12.046 4.301v10.438q0 2.225-.047 4.342c-.016.768-.048 1.45-.073 2.168l-3.552.36v1.47h12.735v-1.47l-3.577-.365c-.016-.73-.033-1.43-.049-2.201q-.048-2.12-.047-4.343V377.42q0-2.181.047-4.3l.048-2.164 3.578-.365v-1.47zm52.516 0v1.47l3.796.387-.016 2.304-6.588 8.031-6.342 7.72.044-6.578q0-3.385.023-6.73c.011-1.606.03-3.185.05-4.766l3.64-.37v-1.468h-12.732v1.469l3.633.37c.022.717.053 1.396.06 2.158q.023 2.12.024 4.301v10.438q0 2.225-.047 4.342c-.016.765-.049 1.445-.074 2.16l-3.596.368v1.47h12.732v-1.47l-3.793-.384.016-2.424 6.542-7.995 6.388-7.767-.043 6.298q0 3.629-.024 7.033c-.01 1.648-.03 3.256-.049 4.867l-3.644.372v1.47h12.732v-1.47l-3.596-.367c-.025-.73-.057-1.43-.073-2.2q-.045-2.12-.045-4.342v-10.399q0-2.181.045-4.3c.015-.765.048-1.445.073-2.162l3.596-.367v-1.47zm39.534 8.298q.022-2.181.068-4.3l.05-2.162 3.623-.367v-1.47h-12.689a16.974 16.974 0 00-5.89.898 7.997 7.997 0 00-3.647 2.507 6.285 6.285 0 00-.25 7.157 7.185 7.185 0 003.218 2.549 13.869 13.869 0 003.66.917 10.186 10.186 0 00-1.713.47 5.958 5.958 0 00-2.513 1.773 12.579 12.579 0 00-1.791 3.1l-2.492 5.886-3.4.35v1.47c.605.109 1.23.203 1.883.286a18.147 18.147 0 002.194.12 7.726 7.726 0 002.472-.324 3.543 3.543 0 001.517-1 5.633 5.633 0 00.997-1.773l2.31-5.587a12.96 12.96 0 011.248-2.425 3.38 3.38 0 011.516-1.245 6.83 6.83 0 012.493-.366h1.811a505.5 505.5 0 01-.02 3.873l-.045 4.384c-.01.779-.04 1.482-.063 2.218l-3.586.37v1.469h12.78v-1.47l-3.623-.367-.05-2.16q-.044-2.12-.068-4.343t-.02-4.342v-1.794q0-2.12.02-4.302zm-8.086 4.791a7.059 7.059 0 01-3.558-.796 5.067 5.067 0 01-2.062-2.139 6.581 6.581 0 01-.678-3.018 5.264 5.264 0 011.54-3.997 6.549 6.549 0 014.667-1.466h2.72c.024.776.057 1.527.067 2.345q.023 2.097.045 4.342.022 2.244.023 4.526v.203zM22.615 235.954l7.825.939a5.217 5.217 0 014.833 5.358c-.181 2.458-.332 4.86-.514 7.264q-.679 9.031-1.843 17.345-1.177 8.368-2.809 15.936A99.082 99.082 0 0126 297.13c-.604 1.823-1.33 3.535-1.994 5.193l-.272.662c-.18.497-.453 1.05-.725 1.63 0 .028-.03.028-.03.056a6.573 6.573 0 01-5.256 2.513 7.106 7.106 0 01-1.873-.249h-.03a12.21 12.21 0 00-.906-.359 13.236 13.236 0 00-4.35-.718 11.585 11.585 0 00-6.404 1.685 8.805 8.805 0 00-3.596 4.64c0 3.507 1.058 6.104 3.142 7.816a12.724 12.724 0 008.187 2.541 14.55 14.55 0 008.61-2.624 24.151 24.151 0 006.766-7.871 68.476 68.476 0 005.498-13.036 121.582 121.582 0 003.987-14.583q1.587-7.748 2.72-16.35 1.087-8.576 1.812-17.953.363-4.185.635-8.452a5.396 5.396 0 015.557-4.778h10.815a5.33 5.33 0 015.558 4.972c.121 5.358.242 13.284.242 16.599v34.303c0 4.888-.03 9.666-.152 14.306 0 .967-.03 1.906-.06 2.818a5.268 5.268 0 01-4.954 4.943l-7.038.718v4.834h41.627v-4.834l-6.918-.718a5.26 5.26 0 01-4.924-4.916c-.03-.94-.06-1.878-.06-2.845-.121-4.64-.152-9.418-.152-14.251v-34.359c0-3.397.121-11.6.242-16.847a5.262 5.262 0 014.925-4.972l6.887-.69v-4.861h-70.9zm128.266 25.674l5.266.89a5.273 5.273 0 014.587 5.04v1.242l-17.06 17.707-14.27 14.908v-33.858a5.273 5.273 0 014.588-5.04l5.269-.889v-4.305h-35.156v4.305l4.717.747a5.287 5.287 0 014.647 4.976c.043 2.816.095 6.333.124 8.33q.075 5.311.073 9.615v7.126q0 4.17-.073 9.548c-.029 2.034-.082 5.591-.126 8.422a5.248 5.248 0 01-4.604 4.937l-4.758.763v4.302h35.156v-4.302l-5.292-.885a5.237 5.237 0 01-4.564-5.006v-1.137l16.915-17.583 14.414-15.072v33.784a5.236 5.236 0 01-4.554 5.004l-5.3.895v4.302h34.858v-4.302l-4.698-.76a5.248 5.248 0 01-4.594-4.911c-.058-2.836-.121-6.41-.121-8.451v-26.29c0-2.002.061-5.529.119-8.342a5.284 5.284 0 014.616-4.945l4.678-.765v-4.304h-34.857zm122.499 49.88l-29.688-80.946h-10.15l-29.284 80.562a5.425 5.425 0 01-4.455 3.407l-7.74 1.022v4.841h30.3v-4.841l-6.158-.754c-3.42-.42-5.588-3.57-4.522-6.57l5.905-16.613h30.69l5.833 16.827c1.055 3.044-1.175 6.216-4.642 6.602l-5.776.643v4.706h40.595v-4.706l-6.33-.744a5.484 5.484 0 01-4.578-3.436zm-53.786-25.54l12.983-36.534a.585.585 0 011.08.004l12.663 36.53zm137.501-15.733a25.658 25.658 0 00-23.828-14.794 25.559 25.559 0 00-9.121 1.613 28.992 28.992 0 00-7.941 4.574 35.155 35.155 0 00-4.092 3.926l-.47-8.767-2.058-1.346-23.828 7.665v3.9l6.096.97a4.838 4.838 0 014.227 4.45q.025.693.046 1.372.076 2.488.148 5.31.07 2.825.074 6.725v38.06q0 4.568-.074 9.548c-.03 2.01-.099 6.118-.156 9.304a5.248 5.248 0 01-4.623 4.925l-5.295.832v4.437h37.506v-4.437l-6.444-.964a5.25 5.25 0 01-4.667-4.941c-.05-3.157-.112-7.204-.14-9.224q-.08-5.045-.074-9.48v-10.321a28.787 28.787 0 003.163 3.125 22.98 22.98 0 007.428 4.237 25.514 25.514 0 008.236 1.343 27.683 27.683 0 0014.93-4.167 29.708 29.708 0 0010.662-11.768q3.974-7.598 3.974-18.222t-3.679-17.885zm-15.96 32.676a18.154 18.154 0 01-6.104 8.205 14.958 14.958 0 01-8.823 2.69 17.885 17.885 0 01-9.561-2.622 31.938 31.938 0 01-4.312-3.032l-.21-37.726c.367-.308 1.286-.78 1.651-1.068a31.914 31.914 0 016.399-3.964 15.75 15.75 0 016.62-1.481 14.388 14.388 0 0111.989 6.12q4.633 6.121 4.631 18.759 0 8.609-2.28 14.12zM301.5 57.855c2.81 4.17 9.485 7.22 17.37 7.432 10.603.332 19.334-4.562 19.515-10.875s-8.247-11.66-18.82-11.963c-10.603-.332-19.273 3.897-19.454 10.21a24.326 24.326 0 00.12 2.568c-4.259 1.027-22.414 5.558-38.817 23.985-.756.816-.846-.06-.937-1.842-.423-9.003.544-14.954 2.266-19.122a.636.636 0 011.238.06c.423 4.078 1.782 6.585 2.236 9.183a.855.855 0 001.48.453c7.914-9.214 4.622-17.914 4.863-26.13.151-4.592 2.054-10.784 3.263-14.319a1.034 1.034 0 00-1.601-1.148c-2.054 1.601-5.347 4.743-9.758 10.815-7.626 10.49-13.929 23.417-9.844 50.396a.434.434 0 01-.069.311 122.79 122.79 0 00-3.318 5.118 1.443 1.443 0 00-.211-.09c-4.109-1.601-9.818-1.51-13.564-3.383-3.323-1.692-5.377-7.673-9.153-10.332a21.441 21.441 0 00-11.902-4.047c-13.171-.454-19.183 9.364-22.385 20.511a96.552 96.552 0 01-1.333 4.246c-.185.547-.46.5-.41-.075a158.533 158.533 0 00-4.117-50.601c-3.534-14.47-15.406-31.84-2.085-44.8.756-.755-3.295-3.32-4.41-3.685-4.285-1.403-8.7 1.42-10.542 5.287-5.226 11.086-6.556 23.592-5.8 35.736.09 1.45.634 3.444.211 4.864-.453 1.51-2.084.695-2.235-.514a86.036 86.036 0 01.393-23.472c-.423-3.141-3.142-4.078-5.921-3.383-8.255 2.104-8.44 17.242-7.718 21.21a.27.27 0 01-.418.275 4.445 4.445 0 00-5.428.356c-1.901 1.808-1.23 4.87-.905 7.129.703 4.904 2.532 9.521 3.692 14.338.058.242-.057.284-.309.133a3.867 3.867 0 00-3.596.3c-2.507 1.813-.936 5.257.212 7.372.846 1.51 4.803 5.89 2.568 7.4-1.39.937-3.535-1.48-4.501-2.205-12.78-9.727-28.246-14.802-41.538-23.774-14.47-9.787-25.375-22.323-35.767-36.22-3.383-4.53-10.845-3.171-13.322 1.48C47.175 23.78 55 30.85 59.198 35.26a91.46 91.46 0 0031.9 21.81s.098-.01.09.06a.067.067 0 01-.09.06 88.322 88.322 0 01-23.926-9.092c-2.024-1.118-4.44-2.326-6.464-1.179a4.8 4.8 0 00-2.054 3.475 8.827 8.827 0 001.208 5.92c.846 1.36 11.63 8.972 14.772 10.241a.64.64 0 01.272.936c-1.36 2.629-.453 5.982 1.42 8.247 3.409 4.2 13.503 5.948 17.027 7.003l.121.274a6.946 6.946 0 003.937 8.401c1.93.889 8.58 3.206 10.85 3.833l.102.266c-1.055 2.232-.698 5.731 2.49 6.958 4.562 1.843 14.894 3.655 23.11 3.564a.172.172 0 01.06.333c-2.567 1.057-3.534 4.138-2.205 6.978a6.194 6.194 0 004.41 3.474 14.274 14.274 0 005.86-.544c5.593-1.236 11.988-1.497 17.035 1.592.133.081.08.188-.08.161a10.66 10.66 0 00-6.865.996 4.215 4.215 0 00-1.662 5.74c1.209 1.933 3.777 2.447 6.012 2.386 2.749-.06 5.407-.634 8.126-.724 4.063-.091 6.725 1.582 9.058 2.7a.302.302 0 01.07.5 48.13 48.13 0 01-10.487 7.372c-19.666 9.879-42.443 7.673-43.32 7.583-2.325 1.63-.603 3.897.242 4.35a19.278 19.278 0 006.133 1.722 106.294 106.294 0 0031.086-.25.316.316 0 01.201.591c-22.314 11.272-51.251 13.613-73.881 2.136-4.894-2.477-8.821-12.355-16.071-7.552-7.582 5.075 1.963 10.029 6.434 12.053 20.462 9.263 35.205 10.562 51.905 10.52a.364.364 0 01.19.683c-9.086 4.554-24.648 10.198-34.332 10.457-4.864.15-9.184-1.209-13.685 1.963-3.111 2.175-6.887 6.888-3.504 10.513 5.438 5.74 26.463-3.867 32.384-6.133a143.28 143.28 0 0033.238-17.937.198.198 0 01.274.286c-5.52 5.932-18.483 19.78-15.477 24.508 2.326 3.625 8.489 3.202 11.42.755 2.9-2.477 1.902-4.5 2.809-7.733 5.377-19.243 29.241-31.266 47.366-33.048 19.606-1.934 34.136-14.38 35.103-34.86.392-8.459 2.295-13.232 10.814-16.313a61.324 61.324 0 0115.014-3.353.447.447 0 01.423.665 99.98 99.98 0 00-3.867 8.065c-17.793 41.325-24.167 43.651-48.877 57.578a1.688 1.688 0 00.12 2.99l4.32 2.085a3.957 3.957 0 004.14-.484c5.074-4.108 19.605-15.164 32.655-19.061 20.783-6.133 25.737-9.667 38.515-23.563 6.405-6.918 10.09-10.512 12.144-12.325a.86.86 0 00-.634-1.51 84.528 84.528 0 01-15.195-.06c-10.935-1.36-21.448 4.773-25.013 11.902a21.255 21.255 0 00-1.722 3.806 1.066 1.066 0 001.42.967 50.999 50.999 0 017.613-2.96c.725-.242 1.269.483.785 1.208a30.963 30.963 0 01-20.149 13.685 1.016 1.016 0 01-1.027-1.54c4.592-7.341 11.751-24.41 16.132-33.593 8.186-17.067 19.847-18.94 30.63-18.487 10.815.423 20.33-.09 31.327-7.13a113.705 113.705 0 0010.727-7.398.588.588 0 00-.45-1.039 37.95 37.95 0 01-12.965-.474c-7.764-1.631-22.445-4.078-32.777 2.598a1.01 1.01 0 00.544 1.843c7.19-.03 7.28.604 11.056 1.148a.77.77 0 01.272 1.42c-3.625 1.812-6.404 2.507-15.587 3.504a32.016 32.016 0 00-8.64 2.628.86.86 0 01-1.027-1.329c6.555-8.067 20.632-22.416 38.969-25.226zm11.147-9.908c6.283-.876 14.893-.936 19.847 3.02 2.084 1.632 0 3.898-2.085 3.263-2.446-.725-4.561-2.144-7.098-2.718a36.532 36.532 0 00-9.063-.604c-.876 0-2.326.21-2.87-.756a1.602 1.602 0 011.268-2.205zm-124.882 64.284c-2.84 3.474-9.274 6.464-13.05 3.776-3.112-1.662-5.952-5.528-8.036-8.338-10.603-14.138-24.559-23.834-39.845-33.229-.544-.362-3.141-1.933-3.927-2.447a.616.616 0 11.574-1.087c.997.574 7.461 4.078 8.217 4.5 14.167 7.734 28.094 16.343 38.606 28.699.967 1.117 5.951 6.162 7.794 6.132 1.873-.03 2.507-2.115 2.719-3.625.664-5.226.332-25.95.211-31.024a192.254 192.254 0 00-3.111-29.695.87.87 0 01.664-1.148c1.118-.272 1.3.544 1.33.634a147.942 147.942 0 016.283 47.67 26.777 26.777 0 002.537 12.355 13.705 13.705 0 001.767 2.655.526.526 0 010 .596c-1.111 1.563-1.23 1.703-2.733 3.576zm34.74-16.887c-1.54.574-3.293-3.716-5.83-3.806-1.36-.06-2.81 1.269-3.837.06-.846-.997-.15-2.115.665-2.84 1.842-1.632 5.317-1.42 7.431-.604 2.96 1.179 6.072 5.62 1.57 7.19z" data-name="Логотип_основная версия_белый" fill="#fff"/></svg>