<svg id="Logo" xmlns="http://www.w3.org/2000/svg" viewBox="0 0 362.7618 396.8504"><title>CMYKЛоготип_основная версия_белый</title><g id="Логотип_основная_версия_белый" data-name="Логотип_основная версия_белый"><path d="M.1405,369.1229v1.4692l3.6321.368c.0212.7168.0525,1.3965.0614,2.16q.022,2.12.0442,4.3012t.0236,4.3012v1.7936q0,2.124-.0236,4.3425-.022,2.2257-.0442,4.3424c-.0087.7641-.04,1.4419-.0612,2.1572l-3.6323.371v1.4691H12.9186v-1.4691l-3.55-.3569c-.0256-.7331-.0581-1.436-.0751-2.21q-.0442-2.12-.0442-4.3425V377.4214q0-2.1816.0442-4.3012c.0181-.8215.052-1.5572.08-2.3246H20.8594c.0279.7674.0618,1.5031.0789,2.3246q.0465,2.12.0458,4.3012v10.4373q0,2.2257-.0458,4.3424c-.016.7681-.0483,1.45-.0735,2.1683l-3.5506.36v1.4691H30.0466v-1.4691l-3.5751-.3651c-.0164-.7308-.033-1.4307-.049-2.2014q-.0465-2.12-.0458-4.3425V377.4214q0-2.1816.0458-4.3012c.016-.7648.0324-1.4455.0486-2.1631l3.5755-.365v-1.4692Z" style="fill:#fff"/><path d="M53.8134,394.2477a10.442,10.442,0,0,1-1.0883.4226,12.6548,12.6548,0,0,1-3.4663.5074,8.8092,8.8092,0,0,1-4.8263-1.3659,9.16,9.16,0,0,1-3.3985-4.1389,17.0355,17.0355,0,0,1-1.2464-6.9709,16.1361,16.1361,0,0,1,1.3379-7.0152A9.7394,9.7394,0,0,1,44.66,371.53a8.77,8.77,0,0,1,4.7806-1.3865,10.4059,10.4059,0,0,1,3.1492.5074,9.4378,9.4378,0,0,1,.8684.3768l1.7364,5.5586h2.22l-.3171-6.2393a14.5439,14.5439,0,0,0-4.1227-1.4691,21.9634,21.9634,0,0,0-4.1241-.4071,17.3224,17.3224,0,0,0-5.732.9381,13.97,13.97,0,0,0-4.7569,2.773,12.927,12.927,0,0,0-3.2406,4.5047,14.9563,14.9563,0,0,0-1.1771,6.0978,14.8033,14.8033,0,0,0,1.1328,5.9532A12.7632,12.7632,0,0,0,38.202,393.16a13.4379,13.4379,0,0,0,4.6906,2.7524,17.7349,17.7349,0,0,0,5.8676.9381,21.9947,21.9947,0,0,0,4.5991-.4691,16.4275,16.4275,0,0,0,4.1006-1.4455l.2729-6.2806H55.5114Z" style="fill:#fff"/><path d="M80.3891,369.1229v1.4692l3.793.3875-.0155,2.3051-6.5874,8.0308-6.3421,7.7188.0437-6.5772q0-3.3851.0222-6.729c.0106-1.6074.03-3.1861.049-4.7665l3.6444-.3695v-1.4692H62.264v1.4692l3.6315.3709c.0212.7158.0526,1.3947.0605,2.1572q.0222,2.12.0236,4.3012v10.4373q0,2.2257-.0457,4.3424c-.0168.7656-.0485,1.4444-.0734,2.1609l-3.5965.3673v1.4691H74.9964v-1.4691l-3.7947-.3846.0161-2.4238,6.5428-7.9946,6.3865-7.7657-.0424,6.2965q0,3.6286-.0236,7.0329c-.0107,1.648-.03,3.2561-.0493,4.8669l-3.6427.3724v1.4691H93.1215v-1.4691l-3.5959-.3673c-.0255-.7294-.0579-1.4293-.074-2.1992q-.0465-2.12-.0457-4.3425V377.4214q0-2.1816.0457-4.3012c.0159-.764.0481-1.444.0734-2.1609l3.5965-.3672v-1.4692Z" style="fill:#fff"/><polygon points="112.544 381.155 119.673 370.941 123.207 370.592 123.207 369.123 113.828 369.123 113.828 370.592 117.329 370.938 111.546 379.602 105.985 370.949 109.478 370.592 109.478 369.123 96.746 369.123 96.746 370.592 100.005 370.951 107.947 383.309 100.045 394.372 96.383 394.729 96.383 396.198 105.808 396.198 105.808 394.729 102.385 394.392 108.943 384.859 115.047 394.356 111.337 394.729 111.337 396.198 124.34 396.198 124.34 394.729 121.044 394.381 112.544 381.155" style="fill:#fff"/><path d="M149.128,372.0582a12.6912,12.6912,0,0,0-4.3277-2.69,14.4269,14.4269,0,0,0-5.0519-.8968,14.1719,14.1719,0,0,0-5.052.9174,12.743,12.743,0,0,0-4.3277,2.7318,13.2842,13.2842,0,0,0-3.0356,4.4663,15.3048,15.3048,0,0,0-1.1328,6.0742,15.9774,15.9774,0,0,0,1.1092,6.1774,12.43,12.43,0,0,0,3.0356,4.4457,13.0651,13.0651,0,0,0,4.3513,2.67,14.583,14.583,0,0,0,10.1261-.0207,12.6442,12.6442,0,0,0,7.3633-7.1568,17.3544,17.3544,0,0,0-.0236-12.2722A13.0745,13.0745,0,0,0,149.128,372.0582Zm-2.1756,15.476a14.6334,14.6334,0,0,1-1.3585,3.9737,7.2911,7.2911,0,0,1-2.3571,2.6934,6.68,6.68,0,0,1-6.9547,0,7.3688,7.3688,0,0,1-2.4014-2.6934,13.5976,13.5976,0,0,1-1.36-3.9944,27.6708,27.6708,0,0,1,0-9.7263,13.6089,13.6089,0,0,1,1.36-3.9737,7.3913,7.3913,0,0,1,2.4014-2.6934,6.68,6.68,0,0,1,6.9547,0,7.2656,7.2656,0,0,1,2.3571,2.7141,14.9228,14.9228,0,0,1,1.3585,3.9943,26.231,26.231,0,0,1,0,9.7057Z" style="fill:#fff"/><path d="M157.192,369.1229l-.3629,7.5433h2.2214l1.619-5.8293h5.996c.0232.7545.0555,1.4761.064,2.2833q.0221,2.12.0236,4.3012v10.4373q0,2.2257-.0472,4.3424c-.0159.7574-.048,1.429-.0727,2.1384l-4.0957.39v1.4691h13.7767v-1.4691l-4.0952-.39c-.0251-.7227-.0574-1.4145-.0732-2.1767q-.0487-2.12-.0472-4.3425V377.4214q0-2.1816.0472-4.3012c.0167-.8072.05-1.5288.0774-2.2833H178.22l1.5814,5.8293h2.2656l-.4071-7.5433Z" style="fill:#fff"/><path d="M204.87,394.4845H195.06c-.0273-.7744-.0614-1.5193-.0784-2.3424q-.0443-2.1417-.0442-4.3837v-4.5667h5.6974l.8723,3.7111H203.23v-9.1362h-1.7229l-.8984,3.7111h-5.6713v-4.0563q0-2.1816.0442-4.3012c.0168-.8072.05-1.5288.0775-2.2833h8.9548l1.6616,5.4635h2.2214l-.41-7.1775H185.8281v1.4692l3.6327.368c.0213.7168.0528,1.3965.0607,2.16q.0222,2.12.0236,4.3012v10.4373q0,2.2257-.0236,4.3424c-.0079.7652-.0394,1.4441-.0607,2.16l-3.6327.368v1.4691h22.4763l.4071-7.34H206.49Z" style="fill:#fff"/><path d="M235.0613,372.8547a7.9392,7.9392,0,0,0-3.8291-2.7523,18.9328,18.9328,0,0,0-6.617-.9795H213.0157v1.4692l3.6327.368c.0212.7168.0528,1.3965.0607,2.16q.0222,2.12.0236,4.3012v10.4373q0,2.2257-.0236,4.3424c-.0079.7652-.04,1.4441-.0607,2.16l-3.6327.368v1.4691h13.2781v-1.4691l-4.0517-.3946c-.0245-.7094-.0568-1.3935-.0725-2.1336q-.0443-2.08-.0442-4.1772v-2.7524h1.8113a19.2022,19.2022,0,0,0,7.2955-1.1417,8.1169,8.1169,0,0,0,3.897-3.0179,7.5953,7.5953,0,0,0,1.177-4.1182A7.0264,7.0264,0,0,0,235.0613,372.8547Zm-4.7584,7.564a5.1316,5.1316,0,0,1-2.1742,2.3452,7.7124,7.7124,0,0,1-3.8291.8349h-2.1742v-6.1774q0-2.1816.0442-4.3012c.0172-.8215.0511-1.5572.0789-2.3246H224.12a7.3024,7.3024,0,0,1,5.1862,1.6107,6.0174,6.0174,0,0,1,1.6992,4.5874A8.0126,8.0126,0,0,1,230.3029,380.4187Z" style="fill:#fff"/><path d="M251.263,368.9607h-3.1271l-9.3533,25.3254-3.4263.4432v1.4691h9.334v-1.4691l-3.9195-.4709,2.45-6.7862h9.4534l2.4227,6.88-3.8335.4189v1.4278h12.5052v-1.4278l-3.0188-.3481Zm-7.4249,16.8005,4.1673-11.5443,4.0659,11.5443Z" style="fill:#fff"/><path d="M266.8038,369.1229v1.4692l3.6313.368c.0218.7165.0542,1.3965.0621,2.16q.0222,2.12.0443,4.3012t.0236,4.3012v1.7936q0,2.124-.0236,4.3425-.0222,2.2257-.0443,4.3424c-.0079.7641-.04,1.4419-.0621,2.1572l-3.6313.371v1.4691H279.58v-1.4691l-3.5483-.3569c-.0255-.7331-.0581-1.436-.0743-2.21q-.0488-2.12-.0472-4.3425V377.4214q0-2.1816.0472-4.3012c.0171-.8215.051-1.5572.0789-2.3246h11.486c.0278.7674.0617,1.5031.0789,2.3246q.0442,2.12.0472,4.3012v10.4373q0,2.2257-.0472,4.3424c-.016.7681-.0485,1.45-.0736,2.1683l-3.552.36v1.4691h12.7353v-1.4691l-3.5773-.3651c-.016-.7308-.0322-1.4307-.0483-2.2014q-.0486-2.12-.0472-4.3425V377.4214q0-2.1816.0472-4.3012c.0161-.7648.0319-1.4455.048-2.1631l3.5776-.365v-1.4692Z" style="fill:#fff"/><path d="M319.3205,369.1229v1.4692l3.7957.3875-.0158,2.304-6.5884,8.0319-6.342,7.72.0437-6.5786q0-3.3851.0236-6.729c.0107-1.6074.03-3.1864.049-4.7669l3.6415-.3691v-1.4692H301.1954v1.4692l3.633.3709c.0212.7158.0525,1.3947.06,2.1572q.0222,2.12.0236,4.3012v10.4373q0,2.2257-.0472,4.3424c-.0158.7656-.0483,1.4448-.0733,2.1609l-3.5965.3673v1.4691h12.7324v-1.4691l-3.7932-.3842.016-2.4242,6.5414-7.9946,6.3887-7.7668-.0432,6.2976q0,3.6286-.0236,7.0329c-.0107,1.6484-.03,3.2565-.0492,4.8672l-3.6442.3721v1.4691h12.7323v-1.4691l-3.5959-.3673c-.0256-.73-.0579-1.4293-.0739-2.1992q-.0442-2.12-.0443-4.3425V377.4214q0-2.1816.0443-4.3012c.0158-.764.0481-1.444.0734-2.1609l3.5964-.3672v-1.4692Z" style="fill:#fff"/><path d="M358.854,377.4214q.022-2.1816.0678-4.3012c.0176-.764.033-1.444.0494-2.1609l3.6234-.3672v-1.4692H349.9065a16.9741,16.9741,0,0,0-5.8912.8969,7.9971,7.9971,0,0,0-3.6463,2.5075,6.2852,6.2852,0,0,0-.2507,7.1568,7.1847,7.1847,0,0,0,3.2185,2.5488,13.8688,13.8688,0,0,0,3.66.9168,10.1859,10.1859,0,0,0-1.7127.47,5.9576,5.9576,0,0,0-2.5134,1.7729,12.5786,12.5786,0,0,0-1.7907,3.1005l-2.4917,5.8861-3.4.35v1.4691c.6048.1092,1.23.2036,1.8822.2862a18.1473,18.1473,0,0,0,2.1948.1209,7.7261,7.7261,0,0,0,2.4721-.3245,3.5428,3.5428,0,0,0,1.5164-1,5.6332,5.6332,0,0,0,.9971-1.773l2.31-5.5874a12.96,12.96,0,0,1,1.2478-2.4249,3.3807,3.3807,0,0,1,1.5163-1.2449,6.83,6.83,0,0,1,2.4928-.3658h1.8114c-.0019,1.2825-.0078,2.57-.0207,3.8734q-.0221,2.2434-.0442,4.3837c-.01.7788-.0412,1.4824-.0629,2.2177l-3.5863.37v1.4691h12.78v-1.4691l-3.6234-.3673c-.0164-.7161-.0318-1.3953-.0494-2.1609q-.0443-2.12-.0678-4.3424t-.0207-4.3425v-1.7936Q358.8333,379.603,358.854,377.4214Zm-8.0861,4.7909a7.0589,7.0589,0,0,1-3.5577-.7965,5.0667,5.0667,0,0,1-2.0621-2.1388,6.5814,6.5814,0,0,1-.6785-3.0179,5.2643,5.2643,0,0,1,1.54-3.9973,6.5488,6.5488,0,0,1,4.667-1.4662h2.7206c.0242.7759.0568,1.5274.0672,2.3453q.0221,2.0974.0442,4.3425.0222,2.2434.0236,4.5253v.2036Z" style="fill:#fff"/><path d="M22.6154,235.9537l7.8243.9392a5.2169,5.2169,0,0,1,4.8336,5.3581c-.1814,2.4579-.3326,4.8608-.514,7.2638q-.6792,9.0314-1.843,17.3447-1.1772,8.3687-2.8092,15.9363a99.0819,99.0819,0,0,1-4.108,14.3343c-.604,1.8228-1.33,3.5351-1.9942,5.1924q-.136.3312-.2714.6628c-.1814.4971-.4536,1.05-.725,1.63,0,.0276-.03.0276-.03.0552a6.5729,6.5729,0,0,1-5.2562,2.5133,7.1065,7.1065,0,0,1-1.8733-.2485h-.03c-.3016-.138-.604-.2486-.9064-.359a13.2356,13.2356,0,0,0-4.35-.7181,11.5852,11.5852,0,0,0-6.4038,1.6847,8.8052,8.8052,0,0,0-3.5954,4.64c0,3.5075,1.0576,6.1037,3.1418,7.8161a12.7244,12.7244,0,0,0,8.1864,2.5411,14.5507,14.5507,0,0,0,8.61-2.6239,24.1513,24.1513,0,0,0,6.7667-7.8715,68.4757,68.4757,0,0,0,5.4981-13.0361,121.5821,121.5821,0,0,0,3.987-14.583q1.5864-7.7472,2.7192-16.3505,1.0875-8.5756,1.8121-17.9524.3629-4.1843.6349-8.4514a5.3957,5.3957,0,0,1,5.5579-4.778H58.2918a5.3293,5.3293,0,0,1,5.5586,4.9714c.121,5.3581.2412,13.2847.2412,16.5991v34.3028c0,4.8887-.03,9.6667-.1512,14.3067,0,.9668-.0295,1.9057-.06,2.8172a5.2679,5.2679,0,0,1-4.9539,4.9438l-7.038.7181v4.8333H93.5146V315.552l-6.9179-.7181a5.2608,5.2608,0,0,1-4.9236-4.9162c-.03-.9391-.0605-1.878-.0605-2.8448-.1209-4.64-.1512-9.418-.1512-14.2514V258.4634c0-3.3973.121-11.6.2419-16.8478a5.2623,5.2623,0,0,1,4.9244-4.9714l6.8869-.6905v-4.861H22.6154Z" style="fill:#fff"/><path d="M150.8811,261.6283l5.2658.8889a5.273,5.273,0,0,1,4.5873,5.04V268.8l-17.06,17.7073-14.2693,14.908V267.5574a5.273,5.273,0,0,1,4.5873-5.04l5.2688-.8894v-4.3047H104.1052v4.3047l4.7164.7475a5.2867,5.2867,0,0,1,4.6471,4.9756c.0435,2.8164.0958,6.3333.1239,8.3292q.0752,5.3121.0737,9.6155v7.1259q0,4.1712-.0737,9.548c-.0281,2.0344-.0812,5.5918-.1254,8.4223a5.2476,5.2476,0,0,1-4.6043,4.9375l-4.7577.7626v4.302h35.1557v-4.302l-5.2917-.8848a5.2365,5.2365,0,0,1-4.5644-5.0058v-1.1375L146.32,291.4807l14.4139-15.0718v33.7838a5.2359,5.2359,0,0,1-4.5541,5.0041l-5.299.8956v4.302h34.8577v-4.302l-4.6987-.7611a5.2482,5.2482,0,0,1-4.5939-4.9107c-.0583-2.8351-.121-6.4093-.121-8.4506V275.6806c0-2.0025.0612-5.5294.1188-8.3425a5.2839,5.2839,0,0,1,4.616-4.9448l4.6788-.765v-4.3047H150.8811Z" style="fill:#fff"/><path d="M273.38,311.5081l-29.6878-80.9459H233.5413l-29.2836,80.5617a5.4253,5.4253,0,0,1-4.4546,3.4072l-7.7394,1.0219v4.8414h30.3V315.553l-6.159-.7544c-3.42-.4189-5.5881-3.5688-4.5216-6.569l5.9045-16.6141h30.6908l5.8322,16.8272c1.0554,3.0443-1.1749,6.2162-4.6419,6.6022l-5.7762.643v4.7065H284.288v-4.7065l-6.3308-.7435A5.4845,5.4845,0,0,1,273.38,311.5081Zm-53.786-25.54,12.9832-36.5338a.5852.5852,0,0,1,1.08.0037l12.6631,36.53Z" style="fill:#fff"/><path d="M357.095,270.235a25.6579,25.6579,0,0,0-23.8275-14.794,25.5587,25.5587,0,0,0-9.1215,1.6129,28.9916,28.9916,0,0,0-7.9415,4.5744,35.1551,35.1551,0,0,0-4.0917,3.9258l-.4691-8.7672-2.0591-1.3459-23.8275,7.6654v3.9l6.0955.9688a4.8382,4.8382,0,0,1,4.2274,4.45q.0255.6939.0465,1.3729.0751,2.4882.1475,5.3107.0708,2.824.0737,6.7241v38.06q0,4.5676-.0737,9.548c-.03,2.01-.0988,6.1178-.1564,9.3037a5.2476,5.2476,0,0,1-4.6227,4.9256l-5.2953.8317v4.4369h37.5068v-4.4369l-6.4443-.9636a5.25,5.25,0,0,1-4.667-4.9417c-.05-3.1564-.1121-7.2035-.14-9.2232q-.08-5.0449-.0738-9.4805v-10.321a28.7874,28.7874,0,0,0,3.1625,3.1249,22.98,22.98,0,0,0,7.4282,4.2373,25.5144,25.5144,0,0,0,8.2365,1.3432,27.6833,27.6833,0,0,0,14.93-4.1672A29.7081,29.7081,0,0,0,356.8,306.3421q3.9738-7.598,3.9737-18.2221T357.095,270.235Zm-15.96,32.6763a18.1543,18.1543,0,0,1-6.1037,8.2048,14.9577,14.9577,0,0,1-8.8235,2.6891,17.8848,17.8848,0,0,1-9.5611-2.6216,31.9382,31.9382,0,0,1-4.3115-3.0312l-.2109-37.7266c.3672-.3079,1.2862-.7793,1.652-1.0674a31.914,31.914,0,0,1,6.3986-3.9648,15.75,15.75,0,0,1,6.62-1.4808,14.3879,14.3879,0,0,1,11.989,6.12q4.633,6.1214,4.6316,18.7589Q343.4157,297.401,341.1353,302.9113Z" style="fill:#fff"/><path d="M301.5,57.8554c2.8093,4.1687,9.4854,7.22,17.37,7.4313,10.6032.3322,19.3335-4.5615,19.5147-10.8751s-8.247-11.66-18.82-11.9625c-10.603-.3322-19.273,3.8968-19.4542,10.21a24.3261,24.3261,0,0,0,.1209,2.5676c-4.2594,1.0272-22.4146,5.5585-38.8179,23.9855-.7552.8157-.8457-.06-.9365-1.8426-.4227-9.0021.5438-14.9532,2.2657-19.122a.6365.6365,0,0,1,1.2386.06c.423,4.078,1.7822,6.5854,2.2354,9.1833a.8551.8551,0,0,0,1.48.4532c7.9146-9.2136,4.622-17.9136,4.8635-26.13.1512-4.5916,2.0542-10.7845,3.2626-14.3188a1.0336,1.0336,0,0,0-1.601-1.1479c-2.0543,1.6011-5.3469,4.7427-9.7574,10.8146-7.6264,10.49-13.9294,23.4168-9.8441,50.3957a.4336.4336,0,0,1-.0691.3116c-1.1161,1.6219-2.2314,3.3557-3.3181,5.1179a1.4431,1.4431,0,0,0-.2115-.09c-4.1083-1.6012-9.8178-1.5105-13.5636-3.3834-3.3228-1.6916-5.377-7.673-9.153-10.3314a21.4411,21.4411,0,0,0-11.9022-4.0478c-13.1708-.4532-19.1824,9.3645-22.3845,20.5114-.4132,1.4354-.8577,2.8393-1.3335,4.2458-.1851.5473-.4591.5-.4092-.0745a158.5327,158.5327,0,0,0-4.1178-50.6016c-3.5343-14.47-15.4062-31.84-2.0844-44.7992.7552-.7552-3.2952-3.32-4.41-3.6853-4.2852-1.403-8.7,1.42-10.5427,5.2865-5.2262,11.0864-6.5554,23.5927-5.8,35.7366.0908,1.45.6345,3.4436.2115,4.8635-.453,1.51-2.0844.6947-2.2354-.5137a86.0359,86.0359,0,0,1,.3928-23.4718c-.423-3.1418-3.1417-4.0783-5.921-3.3833-8.2551,2.1041-8.4392,17.2422-7.7172,21.2094a.27.27,0,0,1-.4189.2753,4.4446,4.4446,0,0,0-5.4274.3559c-1.9013,1.8079-1.23,4.87-.9056,7.1289.7038,4.9044,2.5322,9.5216,3.6924,14.3386.0582.242-.0571.2843-.3085.1329a3.8668,3.8668,0,0,0-3.596.3007c-2.5074,1.8125-.9365,5.2563.2115,7.3709.8459,1.51,4.8032,5.8907,2.5676,7.4011-1.3895.9365-3.5343-1.48-4.501-2.2053C128.5864,65.83,113.12,60.7554,99.8279,51.7834c-14.47-9.7875-25.375-22.3239-35.7667-36.22-3.3834-4.5312-10.8449-3.1718-13.3221,1.48C47.1746,23.78,54.9986,30.849,59.1975,35.26a91.4608,91.4608,0,0,0,31.9,21.81s.0981-.01.0907.0605a.0665.0665,0,0,1-.0907.06,88.3221,88.3221,0,0,1-23.9251-9.0928c-2.0239-1.1177-4.44-2.3261-6.4646-1.1782a4.8,4.8,0,0,0-2.0542,3.4741,8.8271,8.8271,0,0,0,1.2085,5.9207c.8457,1.3594,11.63,8.972,14.7719,10.2407a.64.64,0,0,1,.2718.9365c-1.3594,2.6281-.453,5.9814,1.42,8.247,3.4089,4.2,13.5034,5.9471,17.0268,7.0021l.1214.274a6.9462,6.9462,0,0,0,3.9372,8.4019c1.93.8884,8.5806,3.2054,10.85,3.8329l.1017.266c-1.0545,2.2319-.6982,5.7308,2.491,6.9575,4.5615,1.8427,14.8928,3.6553,23.1094,3.5646a.1718.1718,0,0,1,.06.3322c-2.5676,1.0574-3.5343,4.1385-2.2051,6.9782a6.1944,6.1944,0,0,0,4.41,3.474,14.2741,14.2741,0,0,0,5.86-.5437c5.5924-1.2362,11.9877-1.4974,17.0344,1.5915.1329.0814.081.1884-.0805.1616a10.6607,10.6607,0,0,0-6.8642.9958,4.2149,4.2149,0,0,0-1.6614,5.74c1.2082,1.9334,3.7761,2.4469,6.0115,2.3864,2.7489-.06,5.4072-.6342,8.126-.7249,4.0625-.0909,6.7254,1.5829,9.0577,2.7007a.302.302,0,0,1,.07.5,48.13,48.13,0,0,1-10.4872,7.3721c-19.6657,9.8782-42.4428,7.6729-43.3188,7.5824-2.3261,1.6311-.6042,3.8968.2416,4.35a19.2778,19.2778,0,0,0,6.1324,1.7219,106.2942,106.2942,0,0,0,31.0863-.25.316.316,0,0,1,.2011.5915c-22.3138,11.2718-51.2511,13.6128-73.8814,2.1359-4.8938-2.4771-8.8209-12.3553-16.071-7.5521-7.5821,5.075,1.9637,10.029,6.4345,12.0531,20.4613,9.2632,35.2048,10.5615,51.9047,10.52a.364.364,0,0,1,.1908.6827c-9.0865,4.5541-24.6485,10.1982-34.333,10.4569-4.8635.151-9.1833-1.2084-13.6843,1.9637-3.1116,2.1749-6.8876,6.8874-3.5043,10.5124,5.4377,5.74,26.4626-3.8667,32.3836-6.1324A143.2805,143.2805,0,0,0,140.315,167.7a.1982.1982,0,0,1,.2739.2863c-5.5194,5.9312-18.4825,19.78-15.4766,24.5077,2.3261,3.6251,8.4886,3.2021,11.4189.7552,2.9-2.4771,1.9031-4.501,2.8094-7.7333,5.377-19.2428,29.2417-31.2657,47.3668-33.0481,19.6052-1.9334,34.1355-14.3792,35.1022-34.86.3927-8.4583,2.2958-13.2313,10.8146-16.3126a61.3242,61.3242,0,0,1,15.0135-3.3531.447.447,0,0,1,.423.6645c-1.3594,2.5376-2.6583,5.2262-3.8666,8.0658-17.7928,41.3251-24.1667,43.6511-48.8774,57.5773a1.6878,1.6878,0,0,0,.121,2.9906l4.32,2.0844a3.9567,3.9567,0,0,0,4.1386-.4835c5.075-4.1083,19.6052-15.1645,32.6553-19.0615,20.7834-6.1322,25.7377-9.6665,38.5158-23.5625,6.4041-6.9177,10.09-10.5125,12.1438-12.3251a.8593.8593,0,0,0-.6344-1.51,84.5278,84.5278,0,0,1-15.1948-.06c-10.9354-1.3595-21.4481,4.7728-25.0127,11.9021a21.2548,21.2548,0,0,0-1.7219,3.8063,1.066,1.066,0,0,0,1.42.9665,50.9989,50.9989,0,0,1,7.6124-2.96c.7252-.2417,1.2689.4835.7855,1.2084a30.963,30.963,0,0,1-20.149,13.6844,1.0165,1.0165,0,0,1-1.0272-1.5407c4.5918-7.3406,11.7512-24.4083,16.1314-33.5918,8.1866-17.0676,19.847-18.94,30.6314-18.4875,10.8145.423,20.33-.09,31.3262-7.1292a113.7053,113.7053,0,0,0,10.7273-7.3987.5876.5876,0,0,0-.451-1.0386,37.9509,37.9509,0,0,1-12.9649-.4742c-7.7636-1.6312-22.4449-4.0781-32.7761,2.5979a1.01,1.01,0,0,0,.5437,1.8428c7.19-.03,7.28.6041,11.0562,1.148a.7709.7709,0,0,1,.272,1.42c-3.6251,1.8124-6.4042,2.5073-15.5877,3.5043a32.0162,32.0162,0,0,0-8.6395,2.6281.8607.8607,0,0,1-1.0272-1.3292C269.0859,75.0137,283.1629,60.6647,301.5,57.8554Zm11.1469-9.9083c6.2834-.8762,14.8927-.9365,19.8469,3.0208,2.0844,1.6312,0,3.8969-2.0843,3.2624-2.4469-.725-4.5616-2.1447-7.099-2.7186a36.5324,36.5324,0,0,0-9.0625-.6042c-.8762,0-2.3261.2114-2.87-.7553A1.6018,1.6018,0,0,1,312.6464,47.9471ZM187.7646,112.2306c-2.8394,3.474-9.2738,6.4646-13.05,3.776-3.1115-1.6614-5.9511-5.528-8.0355-8.3376C156.076,93.5315,142.12,83.8347,126.8342,74.44c-.5437-.3625-3.1416-1.9332-3.927-2.4469a.6157.6157,0,1,1,.5739-1.0875c.997.574,7.4614,4.0783,8.2166,4.5011,14.1678,7.7333,28.094,16.3428,38.6065,28.698.9667,1.1177,5.951,6.1626,7.7938,6.1324,1.8729-.03,2.5072-2.1147,2.7187-3.6251.6647-5.226.3324-25.9491.2115-31.0241a192.2541,192.2541,0,0,0-3.1114-29.6948.8693.8693,0,0,1,.6645-1.1479c1.1177-.272,1.2989.5437,1.3292.6343a147.9423,147.9423,0,0,1,6.2834,47.669,26.7769,26.7769,0,0,0,2.5374,12.3551,13.705,13.705,0,0,0,1.7671,2.6556.5261.5261,0,0,1-.001.5955C189.3865,110.2175,189.2688,110.3576,187.7646,112.2306Zm34.74-16.8865c-1.5405.574-3.2926-3.7157-5.83-3.8063-1.3592-.06-2.8094,1.2687-3.8364.06-.8459-.9969-.1511-2.1146.6645-2.84,1.8427-1.6314,5.3168-1.42,7.4314-.6042C223.894,89.3327,227.0055,93.7732,222.5043,95.3441Z" style="fill:#fff"/></g></svg>